<svg width="24" height="24" viewBox="0 0 24 24" fill="none" xmlns="http://www.w3.org/2000/svg">
<path d="M17.1378 13.6953C14.7708 13.6953 12.852 15.6141 12.852 17.9811C12.852 20.348 14.7708 22.2669 17.1378 22.2669C19.5047 22.2669 21.4236 20.348 21.4236 17.9811C21.4236 15.6141 19.5047 13.6953 17.1378 13.6953ZM17.1378 20.5524C15.7198 20.5524 14.5664 19.3988 14.5664 17.9811C14.5664 16.5631 15.72 15.4098 17.1378 15.4098C18.5557 15.4098 19.7091 16.5634 19.7091 17.9811C19.7093 19.3988 18.5557 20.5524 17.1378 20.5524Z" fill="#0D9C57"/>
<path d="M17.6461 16.2673H16.6174V17.4673H15.4174V18.4959H16.6174V19.6959H17.6461V18.4959H18.8461V17.4673H17.6461V16.2673ZM5.14642 11.1328H10.2893V12.847H5.14642V11.1328Z" fill="#0D9C57"/>
<path d="M4.28135 8.57531H18.007V12.7814H19.7213V3.40336C19.7213 2.4668 18.9591 1.70508 18.0225 1.70508H17.3817C16.6978 1.70508 16.0917 2.09672 15.8374 2.70375C15.7043 3.0218 15.1838 3.02133 15.0513 2.70422C14.7973 2.09742 14.1912 1.70531 13.5071 1.70531H13.0814C12.3975 1.70531 11.7914 2.09695 11.5371 2.70398C11.404 3.02203 10.8835 3.02156 10.751 2.70445C10.497 2.09766 9.89088 1.70555 9.20674 1.70555H8.79822C8.11432 1.70555 7.50822 2.09719 7.25393 2.70422C7.1208 3.02227 6.60025 3.0218 6.46783 2.70469C6.21377 2.09789 5.60768 1.70578 4.92354 1.70578H4.27689C3.34033 1.70578 2.57861 2.4675 2.57861 3.40406V22.2745H11.9817V20.5603H4.29189L4.28135 8.57531ZM4.88604 3.36609C5.22096 4.16414 5.99604 4.67977 6.86064 4.67977C7.72572 4.67977 8.5008 4.16367 8.79799 3.41906L9.16924 3.36586C9.50416 4.16391 10.2792 4.67953 11.1438 4.67953C12.0089 4.67953 12.784 4.16344 13.0812 3.41883L13.4696 3.36563C13.8045 4.16367 14.5796 4.6793 15.4442 4.6793C16.3092 4.6793 17.0843 4.1632 17.3815 3.41859L18.0068 3.40266V6.86016H4.27971L4.27666 3.41859L4.88604 3.36609Z" fill="#0D9C57"/>
</svg>
